<svg width="24" height="24" viewBox="0 0 24 24" fill="none" xmlns="http://www.w3.org/2000/svg">
<g clip-path="url(#clip0_45_49)">
<path d="M22.942 12.5315C22.9469 12.5266 22.9469 12.5266 22.9518 12.5217C22.9665 12.5021 22.9812 12.4874 22.991 12.4678C22.9959 12.4629 22.9959 12.458 23.0008 12.4531C23.0106 12.4335 23.0253 12.4139 23.0351 12.3943C23.0351 12.3894 23.04 12.3845 23.04 12.3845C23.0498 12.3649 23.0596 12.3453 23.0694 12.3208C23.0694 12.3159 23.0694 12.3159 23.0743 12.311C23.0841 12.2914 23.089 12.2669 23.0988 12.2424C23.0988 12.2375 23.0988 12.2326 23.1037 12.2326C23.1086 12.2081 23.1184 12.1886 23.1184 12.1641C23.1184 12.1543 23.1184 12.1494 23.1233 12.1396C23.1282 12.12 23.1282 12.1004 23.1331 12.0808C23.138 12.0514 23.138 12.0269 23.138 11.9975C23.138 11.9681 23.138 11.9436 23.1331 11.9142C23.1331 11.8946 23.1282 11.875 23.1233 11.8554C23.1233 11.8456 23.1233 11.8407 23.1184 11.8309C23.1135 11.8064 23.1086 11.7868 23.1037 11.7623C23.1037 11.7574 23.1037 11.7525 23.0988 11.7525C23.0939 11.7281 23.0841 11.7085 23.0743 11.684C23.0743 11.6791 23.0743 11.6791 23.0694 11.6742C23.0596 11.6546 23.0498 11.6301 23.04 11.6105C23.04 11.6056 23.0351 11.6007 23.0351 11.6007C23.0253 11.5811 23.0155 11.5615 23.0008 11.5419C22.9959 11.537 22.9959 11.5321 22.991 11.5272C22.9763 11.5076 22.9665 11.488 22.9518 11.4733C22.9469 11.4684 22.9469 11.4684 22.942 11.4635C22.9224 11.4439 22.9078 11.4194 22.8833 11.3998L18.0382 6.55965C17.71 6.23142 17.176 6.23142 16.8477 6.55965C16.5195 6.88788 16.5195 7.42187 16.8477 7.7501L20.2574 11.1598H6.702C6.2366 11.1598 5.85938 11.537 5.85938 11.9975C5.85938 12.4629 6.2366 12.8401 6.702 12.8401H20.2623L16.8771 16.2253C16.5489 16.5535 16.5489 17.0875 16.8771 17.4157C17.0388 17.5774 17.2544 17.6607 17.4699 17.6607C17.6855 17.6607 17.901 17.5774 18.0627 17.4157L22.8784 12.6001C22.9029 12.5707 22.9224 12.5511 22.942 12.5315Z" fill="#333333"/>
<path d="M5.42324 1.68034H11.6939C12.1593 1.68034 12.5365 1.30312 12.5365 0.842621C12.5365 0.37722 12.1593 0 11.6939 0H5.42324C2.91007 0 0.862305 2.04776 0.862305 4.56093V19.4391C0.862305 21.9522 2.91007 24 5.42324 24H11.591C12.0564 24 12.4336 23.6228 12.4336 23.1623C12.4336 22.6969 12.0564 22.3197 11.591 22.3197H5.42324C3.83597 22.3197 2.54265 21.0263 2.54265 19.4391V4.56093C2.54755 2.96877 3.83597 1.68034 5.42324 1.68034Z" fill="#333333"/>
</g>
<defs>
<clipPath id="clip0_45_49">
<rect width="24" height="24" fill="#333333"/>
</clipPath>
</defs>
</svg>
